<svg id="AH" xmlns="http://www.w3.org/2000/svg" viewBox="0 0 475.16 475.16"><defs><style>.cls-1{fill:none;}</style></defs><circle class="cls-1" cx="237.58" cy="237.58" r="54.24"/><path class="cls-1" d="M297.64,351.27a69.55,69.55,0,0,1,54.62,26.44s-53.65-177.56-54.62-177.56S243,377.71,243,377.71A69.53,69.53,0,0,1,297.64,351.27Z" transform="translate(-60.06 -183.36)"/><path class="cls-1" d="M297.64,490.62a69.51,69.51,0,0,1-54.09-25.77s53.23,176.89,54.09,176.89,54.09-176.89,54.09-176.89A69.53,69.53,0,0,1,297.64,490.62Z" transform="translate(-60.06 -183.36)"/><path class="cls-1" d="M518.22,411.57c-4.6-110.16-89.9-199.46-198.34-210.31l60.9,210.31Z" transform="translate(-60.06 -183.36)"/><path class="cls-1" d="M275.39,201.26C167,212.11,81.66,301.41,77.06,411.57H214.5Z" transform="translate(-60.06 -183.36)"/><path class="cls-1" d="M319.55,640.66C428.14,630,513.61,540.59,518.22,430.32H380.45Z" transform="translate(-60.06 -183.36)"/><path class="cls-1" d="M77.06,430.32C81.66,540.59,167.14,630,275.73,640.66l-60.9-210.34Z" transform="translate(-60.06 -183.36)"/><path d="M297.64,183.36c-131.21,0-237.58,106.37-237.58,237.58S166.43,658.53,297.64,658.53,535.22,552.16,535.22,420.94,428.85,183.36,297.64,183.36ZM518.22,411.57H380.78l-60.9-210.31C428.32,212.11,513.62,301.41,518.22,411.57ZM297.64,641.74,243.55,464.85a69.65,69.65,0,0,0,108.18,0Zm0-441.59,54.62,177.56a69.64,69.64,0,0,0-109.24,0Zm54.24,220.79a54.24,54.24,0,1,1-54.24-54.23A54.24,54.24,0,0,1,351.88,420.94ZM275.39,201.26,214.5,411.57H77.06C81.66,301.41,167,212.11,275.39,201.26ZM77.06,430.32H214.83l60.9,210.34C167.14,630,81.66,540.59,77.06,430.32ZM319.55,640.66l60.9-210.34H518.22C513.61,540.59,428.14,630,319.55,640.66Z" transform="translate(-60.06 -183.36)"/></svg>